<svg width="256" height="24" viewBox="0 0 256 24" fill="none" xmlns="http://www.w3.org/2000/svg">
<path d="M116.583 4.67406L94.4727 4.62499V0.0864258H113.924C115.285 0.0911271 116.643 0.211153 117.984 0.445217C119.32 0.664716 120.61 1.1008 121.805 1.73625C122.935 2.3412 123.908 3.20241 124.645 4.25087C125.393 5.30578 125.766 6.66019 125.764 8.31411C125.765 8.65444 125.745 8.9945 125.703 9.33222C125.579 10.2618 125.257 11.1538 124.758 11.948C124.758 11.948 122.79 15.6279 117.705 15.3734L124.504 23.1166H118.116L111.949 15.6709L98.9468 15.6034V23.1196H94.4727V11.3439H117.27C118.011 11.3762 118.743 11.176 119.364 10.7713C119.986 10.3665 120.465 9.77759 120.735 9.08689C120.895 8.59243 120.94 8.06808 120.867 7.55359C120.835 7.244 120.736 6.94493 120.579 6.67655C120.158 5.95283 119.064 4.71086 116.583 4.67406Z" fill="#1C2646"/>
<path d="M230.21 12.8096V10.752H213.613V11.4051V22.0432V23.0674H230.21V21.0189H215.668V12.8096H230.21Z" fill="#1C2646"/>
<path d="M66.5234 0.0864258H91.2831V4.62192H81.6878V23.1074H76.1342V4.63112H66.5234V0.0864258Z" fill="#1C2646"/>
<path d="M161.34 23.1166L145.725 0.0864258H141.042L127.699 23.1166M143.952 4.50233L153.275 18.2254H136L143.952 4.50233Z" fill="#1C2646"/>
<path d="M141.039 0.0864258L156.581 23.1166H161.337L145.722 0.0864258H141.039Z" fill="#C6C6C6"/>
<path d="M33.6222 23.1043L18.0163 0.0864258H13.3366L0 23.1043M16.253 4.49926L25.5724 18.2131L8.30128 18.5198L16.253 4.49926Z" fill="#1C2646"/>
<path d="M13.3359 0.0864258L28.8683 23.1043H33.6215L18.0156 0.0864258H13.3359Z" fill="#C6C6C6"/>
<path d="M188.506 10.752V12.8096H179.273V23.0674H177.218V12.8096H167.984V10.752H188.506Z" fill="#1C2646"/>
<path d="M255.997 11.0586V23.1042H253.94V18.2467H237.521V23.1042H235.473V11.0586H237.521V16.189H253.94V11.0586H255.997Z" fill="#1C2646"/>
<path d="M193.34 10.752H208.961V12.8096L193.34 12.6318V10.752Z" fill="#1C2646"/>
<path d="M208.961 18.2436V16.189H193.34V18.2436" fill="#C6C6C6"/>
<path d="M208.961 21.0557H193.34V23.1041H208.961V21.0557Z" fill="#1C2646"/>
<path d="M42.6707 11.8742C41.4566 11.8984 40.2448 11.7602 39.0674 11.4633C37.7445 11.1184 36.6075 10.2728 35.8965 9.10509C35.2832 8.04405 34.9766 7.3694 34.9766 5.13385C34.9766 2.61004 36.9791 1.3006 38.7331 0.638216C39.9072 0.205998 41.1498 -0.0101052 42.4008 0.000362865H63.2383V4.542L41.9623 4.46533C41.3297 4.42633 40.6974 4.54542 40.1223 4.81186C39.7206 5.04185 39.509 5.45278 39.509 6.0385C39.4862 6.28415 39.5314 6.53134 39.6395 6.75307C39.7477 6.9748 39.9147 7.16255 40.1223 7.2958C40.6592 7.6093 41.2734 7.76551 41.8948 7.74659L56.3354 7.89992C59.7915 7.97659 61.196 8.53778 62.6649 9.58348C64.1338 10.6292 64.9771 13.3769 64.9771 15.4898C64.9928 16.5709 64.8055 17.6454 64.4251 18.6575C64.0617 19.5913 63.455 20.4109 62.6679 21.0311C61.7572 21.7284 60.7137 22.2324 59.6014 22.5123C58.1331 22.8816 56.6225 23.0548 55.1088 23.0275H36.4823V18.4276H58.019C60.0092 18.541 61.2849 16.7195 61.1715 15.0788C61.0427 13.2205 60.0613 12.23 57.7982 12.0122L42.6707 11.8742Z" fill="#1C2646"/>
</svg>
